<?xml version="1.0" encoding="UTF-8" standalone="no"?>
<svg
   xmlns:dc="http://purl.org/dc/elements/1.1/"
   xmlns:cc="http://creativecommons.org/ns#"
   xmlns:rdf="http://www.w3.org/1999/02/22-rdf-syntax-ns#"
   xmlns:svg="http://www.w3.org/2000/svg"
   xmlns="http://www.w3.org/2000/svg"
   xmlns:sodipodi="http://sodipodi.sourceforge.net/DTD/sodipodi-0.dtd"
   xmlns:inkscape="http://www.inkscape.org/namespaces/inkscape"
   id="Bold"
   enable-background="new 0 0 24 24"
   height="512"
   viewBox="0 0 24 24"
   width="512"
   version="1.1"
   sodipodi:docname="open-source.svg"
   inkscape:version="0.92.4 5da689c313, 2019-01-14">
  <metadata
     id="metadata9">
    <rdf:RDF>
      <cc:Work
         rdf:about="">
        <dc:format>image/svg+xml</dc:format>
        <dc:type
           rdf:resource="http://purl.org/dc/dcmitype/StillImage" />
      </cc:Work>
    </rdf:RDF>
  </metadata>
  <defs
     id="defs7" />
  <sodipodi:namedview
     pagecolor="#ffffff"
     bordercolor="#666666"
     borderopacity="1"
     objecttolerance="10"
     gridtolerance="10"
     guidetolerance="10"
     inkscape:pageopacity="0"
     inkscape:pageshadow="2"
     inkscape:window-width="1918"
     inkscape:window-height="1042"
     id="namedview5"
     showgrid="false"
     inkscape:zoom="0.4609375"
     inkscape:cx="-118.23729"
     inkscape:cy="256"
     inkscape:window-x="0"
     inkscape:window-y="18"
     inkscape:window-maximized="0"
     inkscape:current-layer="Bold" />
  <path
     d="m12 .5c-6.616 0-12 5.329-12 11.878 0 4.886 3.094 9.336 7.698 11.072.396.156.854-.064.983-.472l2.25-7.112c.107-.337-.04-.702-.352-.872-.974-.532-1.579-1.534-1.579-2.616 0-1.638 1.345-2.97 3-2.97 1.654 0 3 1.332 3 2.97 0 1.082-.604 2.085-1.578 2.618-.312.169-.46.534-.352.872l2.25 7.112c.129.411.584.625.983.472 4.604-1.738 7.697-6.188 7.697-11.074 0-6.549-5.383-11.878-12-11.878z"
     id="path2"
     style="fill:#ffffff"
     inkscape:export-xdpi="28.172071"
     inkscape:export-ydpi="28.172071"
     inkscape:export-filename="/opt/lampp/htdocs/annal-gt/img/opensource.png" />
</svg>
