<?xml version="1.0" encoding="UTF-8" standalone="no"?>
<svg
   xmlns:dc="http://purl.org/dc/elements/1.1/"
   xmlns:cc="http://creativecommons.org/ns#"
   xmlns:rdf="http://www.w3.org/1999/02/22-rdf-syntax-ns#"
   xmlns:svg="http://www.w3.org/2000/svg"
   xmlns="http://www.w3.org/2000/svg"
   xmlns:sodipodi="http://sodipodi.sourceforge.net/DTD/sodipodi-0.dtd"
   xmlns:inkscape="http://www.inkscape.org/namespaces/inkscape"
   height="511pt"
   viewBox="1 -15 511.99975 511"
   width="511pt"
   version="1.1"
   id="svg10"
   sodipodi:docname="search.svg"
   inkscape:version="0.92.4 5da689c313, 2019-01-14">
  <metadata
     id="metadata16">
    <rdf:RDF>
      <cc:Work
         rdf:about="">
        <dc:format>image/svg+xml</dc:format>
        <dc:type
           rdf:resource="http://purl.org/dc/dcmitype/StillImage" />
      </cc:Work>
    </rdf:RDF>
  </metadata>
  <defs
     id="defs14" />
  <sodipodi:namedview
     pagecolor="#ffffff"
     bordercolor="#666666"
     borderopacity="1"
     objecttolerance="10"
     gridtolerance="10"
     guidetolerance="10"
     inkscape:pageopacity="0"
     inkscape:pageshadow="2"
     inkscape:window-width="1918"
     inkscape:window-height="1042"
     id="namedview12"
     showgrid="false"
     inkscape:zoom="0.34637965"
     inkscape:cx="-157.34181"
     inkscape:cy="340.66667"
     inkscape:window-x="0"
     inkscape:window-y="18"
     inkscape:window-maximized="0"
     inkscape:current-layer="svg10" />
  <path
     d="m15 481.523438h272.011719c8.292969 0 15.003906-6.710938 15.003906-15v-15.003907h-227.011719c-24.816406 0-45.003906-20.183593-45.003906-45v-376.019531h-15c-8.289062 0-15 6.710938-15 15.003906v421.019532c0 8.289062 6.710938 15 15 15zm0 0"
     id="path2"
     style="fill:#ffffff"
     inkscape:export-filename="/opt/lampp/htdocs/annal-gt/img/analyze2.png"
     inkscape:export-xdpi="14.097528"
     inkscape:export-ydpi="14.097528" />
  <path
     d="m242.011719 90.503906h81.214843l-81.214843-81.214844zm0 0"
     id="path4"
     style="fill:#ffffff"
     inkscape:export-filename="/opt/lampp/htdocs/annal-gt/img/analyze2.png"
     inkscape:export-xdpi="14.097528"
     inkscape:export-ydpi="14.097528" />
  <path
     d="m75.003906.5c-8.292968 0-15 6.710938-15 15v391.019531c0 8.289063 6.707032 15 15 15h242.011719c8.289063 0 15-6.710937 15-15v-19.28125c-9.761719 2.558594-19.753906 4.28125-30 4.28125-66.171875 0-120.007813-53.835937-120.007813-120.007812 0-66.167969 53.835938-120.003907 120.007813-120.003907 10.417969 0 20.351563 1.753907 30 4.261719v-35.265625h-105.003906c-8.292969 0-15-6.707031-15-15v-105.003906zm0 0"
     id="path6"
     style="fill:#ffffff"
     inkscape:export-filename="/opt/lampp/htdocs/annal-gt/img/analyze2.png"
     inkscape:export-xdpi="14.097528"
     inkscape:export-ydpi="14.097528" />
  <path
     d="m417.835938 344.933594c-5.855469-5.855469-15.34375-5.855469-21.199219-.011719l-21.390625-21.390625c10.472656-14.707031 16.773437-32.585938 16.773437-52.019531 0-49.707031-40.296875-90.003907-90.003906-90.003907-49.710937 0-90.003906 40.296876-90.003906 90.003907 0 49.710937 40.292969 90.003906 90.003906 90.003906 19.429687 0 37.308594-6.296875 52.019531-16.769531l21.386719 21.386718-.011719.007813c-5.859375 5.859375-5.859375 15.355469 0 21.21875l85.398438 85.394531c11.699218 11.703125 30.742187 11.679688 42.425781 0 11.6875-11.6875 11.6875-30.730468 0-42.421875zm0 0"
     id="path8"
     style="fill:#ffffff"
     inkscape:export-filename="/opt/lampp/htdocs/annal-gt/img/analyze2.png"
     inkscape:export-xdpi="14.097528"
     inkscape:export-ydpi="14.097528" />
</svg>
